<svg width="61" height="40" viewBox="0 0 61 40" fill="none" xmlns="http://www.w3.org/2000/svg">
<path fill-rule="evenodd" clip-rule="evenodd" d="M35.2339 6.59266C37.2696 7.83671 37.9114 10.4955 36.6674 12.5312L22.588 35.5701C21.344 37.6059 18.6852 38.2476 16.6495 37.0036C14.6137 35.7595 13.972 33.1008 15.216 31.065L29.2954 8.0261C30.5394 5.99038 33.1982 5.3486 35.2339 6.59266Z" fill="white"/>
<path fill-rule="evenodd" clip-rule="evenodd" d="M51.4478 2.30679C53.4649 3.58077 54.0673 6.24874 52.7934 8.26587L35.5142 35.6246C34.2403 37.6417 31.5723 38.2442 29.5552 36.9702C27.538 35.6962 26.9356 33.0283 28.2096 31.0111L45.4887 3.6524C46.7626 1.63527 49.4306 1.03282 51.4478 2.30679Z" fill="white"/>
<path fill-rule="evenodd" clip-rule="evenodd" d="M19.7263 10.9194C21.7581 12.1697 22.3917 14.8305 21.1413 16.8623L9.6219 35.5815C8.37154 37.6133 5.71078 38.2469 3.67892 36.9965C1.64707 35.7461 1.01354 33.0854 2.26391 31.0535L13.7833 12.3344C15.0337 10.3025 17.6944 9.669 19.7263 10.9194Z" fill="white"/>
<circle cx="53.4604" cy="30.4379" r="7.19966" fill="#F3184C"/>
</svg>
